<?xml version="1.0" encoding="UTF-8"?>
<svg width="544px" height="296px" viewBox="0 0 544 296" version="1.1" xmlns="http://www.w3.org/2000/svg" xmlns:xlink="http://www.w3.org/1999/xlink">

    <defs>
      <style>

        #lines {
          stroke-dasharray: 1000;
          stroke-dashoffset: 5000;
          -webkit-animation: 30s dash linear infinite;
          animation: dash 30s linear infinite;
        }

        @-webkit-keyframes dash {
          from {
            stroke-dashoffset: 5000;
          }
          to {
            stroke-dashoffset: 10000;
          }
        }

      </style>
    </defs>

    <g id="lines" stroke="none" stroke-width="1" fill="none" fill-rule="evenodd">
        <g id="lines" transform="translate(-334.000000, -193.000000)" stroke="#FEFEFE" stroke-width="0.835">
            <g id="lines" transform="translate(334.000000, 194.000000)">
                <path d="M4.6089,118.4839 L4.6089,13.8379 C4.5189,5.4799 9.3349,4.7479 16.6919,4.5819 L130.4739,4.5819 C141.9919,5.4249 142.4969,13.5859 142.5119,13.9329 L142.5099,83.2869 C142.9779,96.5279 155.9659,101.3829 164.5819,101.4329 L315.1909,101.4329 C320.0959,101.4699 323.8239,100.1549 326.2549,97.5259 C329.3729,94.1539 329.0459,89.9019 329.0299,89.7229 L329.0379,31.3189 C329.0439,31.3109 329.2939,27.4599 326.4119,24.2799 C324.0969,21.7259 320.5359,20.3729 315.8279,20.2599 L183.4179,20.2599 C174.7899,20.2599 169.3189,24.4549 168.4099,31.7699 L168.3939,31.8979 L168.3939,32.0269 L168.3939,107.3819 C169.0529,124.7759 196.4349,124.1439 197.5999,124.1089 L474.3429,124.1099 C489.6129,123.0159 491.5669,113.2559 491.7199,106.0089 L491.7209,20.6889 L491.7209,20.4989 L491.6859,20.3109 C490.3009,12.7969 483.0179,8.0489 473.1319,8.2129 L354.8989,8.2129 C345.8589,8.6869 341.1739,12.5479 340.4709,20.0209 L340.4619,232.5789 C340.9039,243.2669 348.6409,255.7169 368.9959,255.9209 L521.1109,255.9209 C528.6089,255.5819 542.7299,251.3719 543.1929,237.8469 L543.1939,150.3739 L543.1939,150.2429 L543.1779,150.1129 C542.2819,143.0099 536.4709,138.9019 527.2339,138.8429 L317.2489,138.8429 C306.6819,139.6629 302.0979,145.2639 302.2249,157.0099 L302.2249,278.8779 C302.0879,285.0869 293.6979,289.2719 279.7809,290.0269 L218.7139,290.0239 C214.3909,289.8759 205.9599,287.5269 205.4979,279.6999 L205.5019,169.7439 C205.4839,169.4289 204.0759,154.1939 184.7709,152.5499 L68.4119,152.5429 C60.1649,152.6899 55.9139,156.2339 55.7419,163.0769 L55.7409,225.4919 C55.7409,230.7779 55.7409,241.7769 73.3599,242.2189 L241.6569,242.2199 C248.7099,242.1349 267.3789,241.9099 267.8569,225.7899 L267.8579,155.8069 C267.8549,155.5649 267.3249,134.1049 243.6969,133.6459 L23.7039,133.6459 C18.4689,133.6459 11.5739,133.6469 7.7519,129.6669 C5.4629,127.2829 4.4049,123.5489 4.6069,118.5689 L4.6089,118.5259 L4.6089,118.4839 Z" id="Stroke-1"></path>
                <path d="M2.5166,118.4834 L2.5166,13.8384 C2.4646,8.9794 3.9886,5.8004 7.1766,4.1204 C9.9876,2.6394 13.6786,2.5564 16.6446,2.4894 L130.4746,2.4894 C133.5896,2.7164 136.2706,3.4534 138.4426,4.6814 C140.1816,5.6634 141.6006,6.9604 142.6596,8.5354 C144.4646,11.2174 144.6016,13.8114 144.6026,13.8374 L144.6026,83.2874 C144.7866,88.4734 147.2436,92.7484 151.7086,95.6504 C155.2746,97.9684 159.9716,99.3134 164.5936,99.3404 L315.1896,99.3404 C319.4976,99.3724 322.7046,98.2844 324.7186,96.1054 C327.2156,93.4044 326.9486,89.9364 326.9456,89.9024 L326.9456,31.3184 C326.9476,31.2874 327.1476,28.2064 324.8616,25.6844 C322.9466,23.5724 319.8906,22.4504 315.7776,22.3524 L183.4186,22.3524 C179.6616,22.3524 176.6246,23.2054 174.3936,24.8894 C172.1826,26.5584 170.8676,28.9604 170.4866,32.0284 L170.4866,107.3814 C170.6206,110.9024 172.1246,113.8624 174.9586,116.1794 C177.2266,118.0344 180.3456,119.4834 184.2286,120.4884 C190.8426,122.1984 197.4706,122.0194 197.5366,122.0174 L474.3436,122.0174 C480.1536,121.5994 484.1606,119.8884 486.5926,116.7884 C488.5596,114.2814 489.5246,110.8414 489.6286,105.9644 L489.6286,20.6884 C489.0326,17.4544 487.1316,14.7714 484.1316,12.9314 C481.2156,11.1424 477.4246,10.2344 473.1656,10.3054 L354.8976,10.3054 C350.8806,10.5174 347.9456,11.4264 345.9246,13.0844 C343.9556,14.6994 342.8546,17.0334 342.5546,20.2174 L342.5546,232.5784 C342.7836,238.0844 345.0066,243.1464 348.8156,246.8334 C351.0236,248.9704 353.7526,250.6474 356.9246,251.8154 C360.4276,253.1064 364.4956,253.7834 369.0166,253.8284 L521.1106,253.8284 C525.5226,253.6274 530.2216,252.2284 533.6796,250.0854 C535.8616,248.7334 537.5946,247.0894 538.8296,245.1954 C540.2426,243.0324 541.0076,240.5354 541.1016,237.7754 L541.1016,150.3734 C540.7056,147.2404 539.1996,144.8314 536.6216,143.2134 C534.2556,141.7264 531.0916,140.9594 527.2206,140.9354 L317.2476,140.9354 C312.5566,141.3014 309.4086,142.6364 307.3436,145.1364 C305.2476,147.6724 304.2586,151.5484 304.3176,156.9864 L304.3176,278.8774 C304.2686,281.1084 303.3506,284.3514 299.2536,287.1304 C295.0686,289.9694 288.5546,291.6464 279.8946,292.1164 L218.7146,292.1164 C215.3896,292.0034 211.8196,290.9394 209.1646,289.2684 C205.6326,287.0454 203.6426,283.7784 203.4096,279.8234 L203.4096,169.7434 C203.4066,169.7104 203.1166,166.3034 200.6606,162.7564 C199.2186,160.6734 197.3226,158.9494 195.0256,157.6344 C192.1546,155.9894 188.6446,154.9804 184.5946,154.6354 L68.4126,154.6354 C65.2006,154.6924 62.9106,155.2214 61.2046,156.2994 C59.0176,157.6814 57.9146,159.9154 57.8336,163.1294 L57.8336,225.4914 C57.8336,228.5534 57.9996,232.0564 59.9786,234.8814 C62.3346,238.2444 66.7286,239.9594 73.4126,240.1274 L241.6566,240.1274 C245.0376,240.0864 251.3306,240.0104 256.4926,238.0964 C262.4676,235.8804 265.5886,231.7194 265.7656,225.7284 L265.7656,155.8064 C265.7656,155.7574 265.6746,150.8384 262.9136,145.9314 C261.2916,143.0494 259.0796,140.7354 256.3396,139.0534 C252.9136,136.9504 248.6466,135.8354 243.6566,135.7384 L23.7046,135.7384 L23.5046,135.7384 C18.0936,135.7384 10.6826,135.7394 6.2426,131.1164 C3.5436,128.3054 2.2906,124.0564 2.5166,118.4834 Z" id="Stroke-3"></path>
                <path d="M0.4438,118.4419 L0.4438,13.8379 C0.3028,0.7849 10.5028,0.5549 16.5978,0.4169 L130.4738,0.4169 C145.9408,1.5359 146.6678,13.6219 146.6728,13.7439 L146.6748,83.2869 C147.0648,94.2499 158.5748,97.2319 164.6058,97.2669 L315.1908,97.2669 C318.8788,97.2949 321.5548,96.4429 323.1608,94.7359 C325.0398,92.7389 324.8808,90.0889 324.8788,90.0629 L324.8728,31.3179 C324.8818,31.0909 324.9808,28.8639 323.2848,27.0319 C321.7608,25.3849 319.2188,24.5079 315.7278,24.4239 L183.4178,24.4249 C178.9308,24.4249 173.4218,25.7709 172.5588,32.1609 L172.5588,107.3809 C173.0598,120.5329 197.2288,119.9529 197.4738,119.9459 L474.3428,119.9449 C485.0528,119.1679 487.3888,113.7759 487.5558,105.9199 L487.5558,20.8889 C486.4688,15.5849 480.8608,12.2499 473.2008,12.3769 L354.8988,12.3769 C346.4988,12.8229 344.9858,16.5019 344.6178,20.4109 L344.6268,232.5779 C345.0068,241.6909 351.6208,251.5839 369.0368,251.7559 L521.1108,251.7559 C527.0898,251.4809 538.6708,248.1889 539.0298,237.7039 C539.0298,208.6399 539.0288,179.5739 539.0288,150.5109 C538.1768,144.3709 532.1398,143.0389 527.2068,143.0069 L317.2488,143.0069 C310.5198,143.5399 306.2718,146.0639 306.3888,156.9649 L306.3898,278.8779 C306.2978,283.0879 303.5448,292.9089 280.0068,294.1849 L218.7138,294.1879 C212.9378,293.9939 201.9788,290.7699 201.3398,279.9449 L201.3368,169.7439 C201.3008,169.4319 200.1058,158.0359 184.4178,156.7009 L68.4118,156.7089 C62.4158,156.8149 60.0198,158.6309 59.9048,163.1819 L59.9058,225.4919 C59.9058,230.6499 59.9058,237.7149 73.4648,238.0559 L241.6568,238.0549 C252.3628,237.9259 263.3768,236.3519 263.6938,225.6669 L263.6928,155.8069 C263.6808,155.1169 263.1568,138.1899 243.6158,137.8099 L23.7038,137.8099 C18.0468,137.8109 9.7988,137.8119 4.7478,132.5519 C1.6498,129.3259 0.2018,124.5789 0.4438,118.4419 Z" id="Stroke-5"></path>
            </g>
        </g>
    </g>
</svg>
